<svg xmlns="http://www.w3.org/2000/svg" viewBox="0 0 512 512"><rect width="512" height="512" rx="96" fill="#1e1813"/><path d="M250.80 121.82L250.80 121.82Q258.17 121.82 269.04 122.55Q279.92 123.29 291.53 124.58Q303.14 125.87 311.81 127.16Q320.47 128.45 323.79 129.93L323.79 129.93L319.36 179.69L315.68 179.69Q315.68 160.52 301.48 148.91Q287.29 137.30 263.70 137.30L263.70 137.30Q242.32 137.30 229.23 147.62Q216.14 157.94 215.41 172.69L215.41 172.69Q215.04 183.75 222.41 191.86Q229.78 199.97 241.21 206.97L241.21 206.97L311.62 252.68Q328.58 262.27 337.24 277.75Q345.91 293.23 344.80 313.88L344.80 313.88Q342.96 350.00 317.15 370.09Q291.35 390.18 247.11 390.18L247.11 390.18Q230.89 390.18 215.59 387.42Q200.29 384.66 188.50 379.68Q176.70 374.70 169.70 367.70L169.70 367.70Q166.75 359.59 167.12 348.16Q167.48 336.73 170.62 324.94Q173.75 313.14 178.54 305.40L178.54 305.40L181.86 305.40Q180.39 324.20 188.68 340.23Q196.98 356.27 213.01 365.67Q229.05 375.07 251.17 374.70L251.17 374.70Q275.50 374.33 288.77 362.35Q302.04 350.37 302.04 333.41L302.04 333.41Q302.04 321.99 295.22 312.77Q288.40 303.55 272.92 295.08L272.92 295.08L208.40 252.31Q188.87 241.25 180.02 223.93Q171.17 206.60 173.38 186.33L173.38 186.33Q174.86 167.16 184.44 152.60Q194.03 138.04 210.80 129.93Q227.57 121.82 250.80 121.82ZM279.92 125.50L324.16 125.50L323.42 133.24L279.92 133.24L279.92 125.50Z" fill="#c69152"/></svg>